/* XPM */
static char *app_icon[] = {
/* columns rows colors chars-per-pixel */
"32 24 125 2 ",
"   c #161616161616",
".  c #181818181818",
"X  c #2D832D832D83",
"o  c gray20",
"O  c #43D643D643CD",
"+  c #484846464444",
"@  c #4B7F4B7B4B77",
"#  c #515151515151",
"$  c gray50",
"%  c #00005757A4A4",
"&  c #01016565ADAD",
"*  c #0A8B6969AD2D",
"=  c #1F1F6F6FA9A9",
"-  c #1B1B7070ADAD",
";  c #06876BECB4B4",
":  c #0A0A7272BBBB",
">  c #2C2C7575A9A9",
",  c #31317777A9A9",
"<  c #3B3B7C7CAAAA",
"1  c #2E2E7BFCB3B3",
"2  c #3C3C7F7FB0B0",
"3  c #44447EFFA9A9",
"4  c #3C928282B409",
"5  c #42428080ACAC",
"6  c #49498484AFAF",
"7  c #4CCD8A8AB6B6",
"8  c #41418585B8B8",
"9  c #46468E8EBFBF",
"0  c #49498D8DBEBE",
"q  c #53538D8DB6B6",
"w  c #5E5E8F8FB3B3",
"e  c #54549292BCBC",
"r  c #61618F8FB1B1",
"t  c #66669494B5B5",
"y  c #6D6D9B9BBCBC",
"u  c #71719999B6B6",
"i  c #7C7C9F9FB8B8",
"p  c #7474A0A0BFBF",
"a  c #24248282C6C6",
"s  c #30308585C3C3",
"d  c #38388F8FCDCD",
"f  c #4B4B8F8FC0C0",
"g  c #46469595CDCD",
"h  c #4F4F9898C8C8",
"j  c #5D5D9A1AC4C4",
"k  c #59599C9CCACA",
"l  c #6F6F9F9FC3C3",
"z  c #66E7A1A1CCCC",
"x  c #6B6BA525CF4F",
"c  c #7474A4A4C7C7",
"v  c #7A7AA5A5C443",
"b  c #7575A6A6C9C9",
"n  c #6B6BA6A6D1D1",
"m  c #6CEDAD2DDADA",
"M  c #7333AAAAD211",
"N  c #7979AF2FD453",
"B  c #836683668366",
"V  c #8C8C8C8C8CBB",
"C  c #92928F8F8E8E",
"Z  c #959591918E8E",
"A  c #92CB92CB92CB",
"S  c #9D2F9D0A9CE5",
"D  c #A4A49F9F9C9C",
"F  c #83D9A5A5BD67",
"G  c #9292AAAABBBB",
"H  c #A0A0A0A0A0A0",
"J  c #AEAEAEAEAEAE",
"K  c #8686AFAFCDCD",
"L  c #9090AFAFC5C5",
"P  c #9313B1B1C7C7",
"I  c #9C9CB409C4C4",
"U  c #8C8CBABADBDB",
"Y  c #9999BCBCD5D5",
"T  c #A0A0B6B6C4C4",
"R  c #A9A9BBBBC7C7",
"E  c #A9A9BFBFCECE",
"W  c #9D9DC3C3DEDE",
"Q  c #BFBFC6C6CBCB",
"!  c #A2A2C4C4DBDB",
"~  c #AAAAC5C5D9D9",
"^  c #AEAECACADCDC",
"/  c #B0B0C3C3D1D1",
"(  c #B7B7CCCCDADA",
")  c #BFBFCFCFDB5B",
"_  c #ADADCDCDE463",
"`  c #B7B7D3D3E7E7",
"'  c #CDCDCF4FCFCF",
"]  c #C1C1CBCBD2D2",
"[  c #C7C7D1D1D8D8",
"{  c #CA1FD47EDC86",
"}  c #CFCFD8D8DFDF",
"|  c #D7A1D7B3D7B7",
" . c #D8D8D7D7D7D7",
".. c #D959D8D8D7D7",
"X. c #D656D7D7D8D8",
"o. c #DC47DC2BDC16",
"O. c #E363DC5CD6D6",
"+. c #E375DF27DC24",
"@. c #E4B1E113DEDE",
"#. c #EB37E3FDDEDE",
"$. c #F7F7E7E7DCDC",
"%. c #C3C3D4D4E1E1",
"&. c #CDF8DA59E338",
"*. c #D555DE5EE463",
"=. c #DBDBDEDEE1E1",
"-. c #DFDFE2E2E4E4",
";. c #D7D7E3E3ECEC",
":. c #DFDFE4E4E8E8",
">. c #E53CE519E507",
",. c #EBEBE767E463",
"<. c #EE43E993E6E6",
"1. c #E5E5E8E8EAEA",
"2. c #ECC8EC76EC3D",
"3. c #F360EB0FE4E4",
"4. c #FDA7EDEDE2E2",
"5. c #F41EEEEEEB95",
"6. c #FFFFF2F2E5E5",
"7. c #F473F1F1EF6F",
"8. c #FBD0F348EC96",
"9. c #E3E3EAEAF0F0",
"0. c #EFEFF2F2F5F5",
"q. c #F3BEF3B6F3B2",
"w. c #FC2EF642F224",
"e. c #FEFEFB50F620",
"r. c #FF69FF61FF5C",
/* pixels */
". # # # # # @ # # # # # @ # # X o # # # # # # # # @ # # @ # #   ",
"# r.r.r.r.r.r.r.r.r.r.r.r.r.r.S J r.r.r.r.r.r.r.r.r.r.r.r.r.r.# ",
"@ r.q.e.q.e.q.q.q.e.e.q.q.q.r.A H r.q.q.q.q.q.0.q.e.q.r.q.q.r.@ ",
"@ r.q.q.q.q.q.q.0.q.q.q.q.q.r.A H r.q.q.r.q.q.e.q.q.q.q.q.q.r.@ ",
"@ r.q.q.0.q.q.q.7.0.5.q.q.0.r.V S r.7.q.2.q.q.&.1.q.0.q.q.q.r.@ ",
"@ r.2.0.q.0.q.2.0.q.0.2.q.2.r.V S r.0.7.2.q.e.q / e.2.q.q.q.r.@ ",
"+ r.2.2.2.2.2.w.w.5.2.2.2.2.r.V S r.w.q.w.w.e.t ] e.w.w.w.w.r.+ ",
"+ r.2.2.2.2.5._ W 2.2.2.2.2.r.V D ` z M x N N 4 j N n x M z ;.@ ",
"+ r.1.1.1.5.:.: % ] q.2.2.1.e.V S 9.[ &.3 T &.&.{ *.7 F &.) 0.@ ",
"O r.1.>.,.8.U > 1 w 8.>.>.2.q.V A e.2.8.P i e.2.5.1.6 >.5.2.e.+ ",
"+ q.>.>.>.5.s F Y * @.,.>.>.q.B A q.>.>.:.3 o.,.8.K u 7.>.1.0.+ ",
"+ q.>.>.<.%.* ' =.& I 5.>.>.q.V A 0.>.>.5.L r 8.*.2 X.,.>.>.0.O ",
"O 0.>.>.3.x < 4.6.0 5 3.>.-.0.B A q.>.>.>.<.w L j I 3.>.>.>.0.O ",
"O q.o.>.+.a s m m d & ' >.o.2.B A 2.=.o.=.$.} & 3 4.>.o.o.+.2.O ",
"O 2.o.#.~ ; p b c v ; F 3.o.5.B A 2.o.#.,.! 9 I y 7 [ 3.+.o.2.+ ",
"O 2.o.#.g , $.#.#.4.f - O.o.2.B C 5.@.^ k e Q ,.,.P 4 l [ ,.7.O ",
"O 2.o.| 1 G @.o...+.E = Q +.2.$ Z _ h e I O.@.o...#.| v 8 e } + ",
"O >.| | | ..| | ..| ..| |  .>.$ C ( R O.+.o...| | | ..@.| G { + ",
"o 2.| | .. .| | | | | o.| | 1.$ V <.o. .| | | | | | | |  .+.2.O ",
"O 2.|  . . .| |  .| | | | | >.$ C >.| | | | | | | | | | | | >.O ",
"O 2.| | o...o.o.o.o.o.| o.o.2.$ V >.o.o.| o.o... .o.o.o. .o.2.O ",
"O 2.o.o.o.o.o.o.o.o.o.o.o.o.2.B A 2.o.o.o.o.o.o.o.o.o.o.o.o.2.O ",
"@ r.q.q.0.q.0.0.7.0.q.q.0.0.r.C S r.q.0.q.q.0.0.0.q.0.q.q.0.r.@ ",
"  @ @ @ @ + + @ + @ + @ + + @ X X @ @ + @ + + @ + @ + @ + + @   "
};
